HIERARCHY
ROOT Hips
{
	OFFSET 0 93.02 0
	CHANNELS 6 Xposition Yposition Zposition Yrotation Xrotation Zrotation 
	JOINT RightUpLeg
	{
		OFFSET -9.25 -1.59 0
		CHANNELS 6 Xposition Yposition Zposition Yrotation Xrotation Zrotation 
		JOINT RightLeg
		{
			OFFSET 0 -41.87 0
			CHANNELS 6 Xposition Yposition Zposition Yrotation Xrotation Zrotation 
			JOINT RightFoot
			{
				OFFSET 0 -41.87 0
				CHANNELS 6 Xposition Yposition Zposition Yrotation Xrotation Zrotation 
				End Site
				{
					OFFSET 0 -7.69 17.5
				}
			}
		}
	}
	JOINT LeftUpLeg
	{
		OFFSET 9.25 -1.59 0
		CHANNELS 6 Xposition Yposition Zposition Yrotation Xrotation Zrotation 
		JOINT LeftLeg
		{
			OFFSET 0 -41.87 0
			CHANNELS 6 Xposition Yposition Zposition Yrotation Xrotation Zrotation 
			JOINT LeftFoot
			{
				OFFSET 0 -41.87 0
				CHANNELS 6 Xposition Yposition Zposition Yrotation Xrotation Zrotation 
				End Site
				{
					OFFSET 0 -7.69 17.5
				}
			}
		}
	}
	JOINT Spine
	{
		OFFSET 0 14.307 0
		CHANNELS 6 Xposition Yposition Zposition Yrotation Xrotation Zrotation 
		JOINT Spine1
		{
			OFFSET 0 9.718 0
			CHANNELS 6 Xposition Yposition Zposition Yrotation Xrotation Zrotation 
			JOINT Spine2
			{
				OFFSET 0 10.12 0
				CHANNELS 6 Xposition Yposition Zposition Yrotation Xrotation Zrotation 
				JOINT Spine3
				{
					OFFSET 0 9.718 0
					CHANNELS 6 Xposition Yposition Zposition Yrotation Xrotation Zrotation 
					JOINT Neck
					{
						OFFSET 0 10.387 0
						CHANNELS 6 Xposition Yposition Zposition Yrotation Xrotation Zrotation 
						JOINT Head
						{
							OFFSET 0 9.47 0
							CHANNELS 6 Xposition Yposition Zposition Yrotation Xrotation Zrotation 
							End Site
							{
								OFFSET 0 15.95 0
							}
						}
					}
					JOINT RightShoulder
					{
						OFFSET -3.2 6.925 0
						CHANNELS 6 Xposition Yposition Zposition Yrotation Xrotation Zrotation 
						JOINT RightArm
						{
							OFFSET -12.8 0 0
							CHANNELS 6 Xposition Yposition Zposition Yrotation Xrotation Zrotation 
							JOINT RightForeArm
							{
								OFFSET -26.5 0 0
								CHANNELS 6 Xposition Yposition Zposition Yrotation Xrotation Zrotation 
								JOINT RightHand
								{
									OFFSET -26 0 0
									CHANNELS 6 Xposition Yposition Zposition Yrotation Xrotation Zrotation 
									JOINT RightHandThumb1
									{
										OFFSET -2.489 0.19 3.121
										CHANNELS 6 Xposition Yposition Zposition Yrotation Xrotation Zrotation 
										JOINT RightHandThumb2
										{
											OFFSET -3.683 0 0
											CHANNELS 6 Xposition Yposition Zposition Yrotation Xrotation Zrotation 
											JOINT RightHandThumb3
											{
												OFFSET -2.558 0 0
												CHANNELS 6 Xposition Yposition Zposition Yrotation Xrotation Zrotation 
												End Site
												{
													OFFSET -2.194 0 0
												}
											}
										}
									}
									JOINT RightInHandIndex
									{
										OFFSET -3.224 0.508 1.978
										CHANNELS 6 Xposition Yposition Zposition Yrotation Xrotation Zrotation 
										JOINT RightHandIndex1
										{
											OFFSET -5.217 -0.091 0.999
											CHANNELS 6 Xposition Yposition Zposition Yrotation Xrotation Zrotation 
											JOINT RightHandIndex2
											{
												OFFSET -3.619 0 0
												CHANNELS 6 Xposition Yposition Zposition Yrotation Xrotation Zrotation 
												JOINT RightHandIndex3
												{
													OFFSET -2.052 0 0
													CHANNELS 6 Xposition Yposition Zposition Yrotation Xrotation Zrotation 
													End Site
													{
														OFFSET -1.805 0 0
													}
												}
											}
										}
									}
									JOINT RightInHandMiddle
									{
										OFFSET -3.382 0.517 0.757
										CHANNELS 6 Xposition Yposition Zposition Yrotation Xrotation Zrotation 
										JOINT RightHandMiddle1
										{
											OFFSET -5.174 -0.084 0.314
											CHANNELS 6 Xposition Yposition Zposition Yrotation Xrotation Zrotation 
											JOINT RightHandMiddle2
											{
												OFFSET -3.949 0 0
												CHANNELS 6 Xposition Yposition Zposition Yrotation Xrotation Zrotation 
												JOINT RightHandMiddle3
												{
													OFFSET -2.476 0 0
													CHANNELS 6 Xposition Yposition Zposition Yrotation Xrotation Zrotation 
													End Site
													{
														OFFSET -1.975 0 0
													}
												}
											}
										}
									}
									JOINT RightInHandRing
									{
										OFFSET -3.365 0.538 -0.129
										CHANNELS 6 Xposition Yposition Zposition Yrotation Xrotation Zrotation 
										JOINT RightHandRing1
										{
											OFFSET -4.635 -0.022 -0.479
											CHANNELS 6 Xposition Yposition Zposition Yrotation Xrotation Zrotation 
											JOINT RightHandRing2
											{
												OFFSET -3.442 0 0
												CHANNELS 6 Xposition Yposition Zposition Yrotation Xrotation Zrotation 
												JOINT RightHandRing3
												{
													OFFSET -2.388 0 0
													CHANNELS 6 Xposition Yposition Zposition Yrotation Xrotation Zrotation 
													End Site
													{
														OFFSET -1.857 0 0
													}
												}
											}
										}
									}
									JOINT RightInHandPinky
									{
										OFFSET -3.161 0.469 -1.202
										CHANNELS 6 Xposition Yposition Zposition Yrotation Xrotation Zrotation 
										JOINT RightHandPinky1
										{
											OFFSET -4.141 -0.022 -1.091
											CHANNELS 6 Xposition Yposition Zposition Yrotation Xrotation Zrotation 
											JOINT RightHandPinky2
											{
												OFFSET -2.757 0 0
												CHANNELS 6 Xposition Yposition Zposition Yrotation Xrotation Zrotation 
												JOINT RightHandPinky3
												{
													OFFSET -1.742 0 0
													CHANNELS 6 Xposition Yposition Zposition Yrotation Xrotation Zrotation 
													End Site
													{
														OFFSET -1.645 0 0
													}
												}
											}
										}
									}
								}
							}
						}
					}
					JOINT LeftShoulder
					{
						OFFSET 3.2 6.925 0
						CHANNELS 6 Xposition Yposition Zposition Yrotation Xrotation Zrotation 
						JOINT LeftArm
						{
							OFFSET 12.8 0 0
							CHANNELS 6 Xposition Yposition Zposition Yrotation Xrotation Zrotation 
							JOINT LeftForeArm
							{
								OFFSET 26.5 0 0
								CHANNELS 6 Xposition Yposition Zposition Yrotation Xrotation Zrotation 
								JOINT LeftHand
								{
									OFFSET 26 0 0
									CHANNELS 6 Xposition Yposition Zposition Yrotation Xrotation Zrotation 
									JOINT LeftHandThumb1
									{
										OFFSET 2.489 0.19 3.121
										CHANNELS 6 Xposition Yposition Zposition Yrotation Xrotation Zrotation 
										JOINT LeftHandThumb2
										{
											OFFSET 3.683 0 0
											CHANNELS 6 Xposition Yposition Zposition Yrotation Xrotation Zrotation 
											JOINT LeftHandThumb3
											{
												OFFSET 2.558 0 0
												CHANNELS 6 Xposition Yposition Zposition Yrotation Xrotation Zrotation 
												End Site
												{
													OFFSET 2.194 0 0
												}
											}
										}
									}
									JOINT LeftInHandIndex
									{
										OFFSET 3.224 0.508 1.978
										CHANNELS 6 Xposition Yposition Zposition Yrotation Xrotation Zrotation 
										JOINT LeftHandIndex1
										{
											OFFSET 5.217 -0.091 0.999
											CHANNELS 6 Xposition Yposition Zposition Yrotation Xrotation Zrotation 
											JOINT LeftHandIndex2
											{
												OFFSET 3.619 0 0
												CHANNELS 6 Xposition Yposition Zposition Yrotation Xrotation Zrotation 
												JOINT LeftHandIndex3
												{
													OFFSET 2.052 0 0
													CHANNELS 6 Xposition Yposition Zposition Yrotation Xrotation Zrotation 
													End Site
													{
														OFFSET 1.805 0 0
													}
												}
											}
										}
									}
									JOINT LeftInHandMiddle
									{
										OFFSET 3.382 0.517 0.757
										CHANNELS 6 Xposition Yposition Zposition Yrotation Xrotation Zrotation 
										JOINT LeftHandMiddle1
										{
											OFFSET 5.174 -0.084 0.314
											CHANNELS 6 Xposition Yposition Zposition Yrotation Xrotation Zrotation 
											JOINT LeftHandMiddle2
											{
												OFFSET 3.949 0 0
												CHANNELS 6 Xposition Yposition Zposition Yrotation Xrotation Zrotation 
												JOINT LeftHandMiddle3
												{
													OFFSET 2.476 0 0
													CHANNELS 6 Xposition Yposition Zposition Yrotation Xrotation Zrotation 
													End Site
													{
														OFFSET 1.975 0 0
													}
												}
											}
										}
									}
									JOINT LeftInHandRing
									{
										OFFSET 3.365 0.538 -0.129
										CHANNELS 6 Xposition Yposition Zposition Yrotation Xrotation Zrotation 
										JOINT LeftHandRing1
										{
											OFFSET 4.635 -0.022 -0.479
											CHANNELS 6 Xposition Yposition Zposition Yrotation Xrotation Zrotation 
											JOINT LeftHandRing2
											{
												OFFSET 3.442 0 0
												CHANNELS 6 Xposition Yposition Zposition Yrotation Xrotation Zrotation 
												JOINT LeftHandRing3
												{
													OFFSET 2.388 0 0
													CHANNELS 6 Xposition Yposition Zposition Yrotation Xrotation Zrotation 
													End Site
													{
														OFFSET 1.857 0 0
													}
												}
											}
										}
									}
									JOINT LeftInHandPinky
									{
										OFFSET 3.161 0.469 -1.202
										CHANNELS 6 Xposition Yposition Zposition Yrotation Xrotation Zrotation 
										JOINT LeftHandPinky1
										{
											OFFSET 4.141 -0.022 -1.091
											CHANNELS 6 Xposition Yposition Zposition Yrotation Xrotation Zrotation 
											JOINT LeftHandPinky2
											{
												OFFSET 2.757 0 0
												CHANNELS 6 Xposition Yposition Zposition Yrotation Xrotation Zrotation 
												JOINT LeftHandPinky3
												{
													OFFSET 1.742 0 0
													CHANNELS 6 Xposition Yposition Zposition Yrotation Xrotation Zrotation 
													End Site
													{
														OFFSET 1.645 0 0
													}
												}
											}
										}
									}
								}
							}
						}
					}
				}
			}
		}
	}
}
MOTION
Frames: 5
Frame Time: 0.008
14.9466 94.5607 -64.82 174.656 6.303 -0.0244906 -9.26797 -1.57633 0.0137283 14.6636 -5.32719 -5.47713 -0.0101709 -41.8733 0.0184727 -6.52489 4.0993 -1.59536 1.20486 -41.823 -0.230737 0.00460838 -2.397 -0.00695207 9.24864 -1.60527 0.0378452 15.7328 -4.1833 2.26125 0.0299678 -41.8751 0.0984573 -11.2443 -0.735651 -2.16009 0.100535 -41.7799 0.16223 0.00535752 -2.39738 -0.00502963 0.0274312 14.3078 0.0396427 -3.74808 -1.862 0.160754 0.00336824 9.72069 0.027963 -0.936585 -0.466895 0.0287706 0.00783393 10.1201 0.0144573 -1.55883 -0.777661 0.0520873 0.0092911 9.71871 0.0251901 0.203035 0.13138 0.046375 -0.0225659 10.3863 0.0212188 0.203051 0.131244 0.0463815 -0.0304564 9.47031 0.0100563 3.69595 2.30175 0.906109 -3.19093 6.91103 0.0182476 4.15718 9.89332 8.15642 -12.7624 -0.0103328 0.0245528 -32.0788 -3.02682 66.9887 -26.4647 -0.0950084 0.118953 43.8949 -22.3529 -11.183 -25.9952 -0.10843 0.0659569 6.61089 -11.9031 -3.88127 -2.48905 0.190105 3.12053 21.86 -0 30 -3.68274 0 0 -10 -0 0 -2.55832 0 0 -10 -0 0 -3.22368 0.508421 1.97842 0 -0 0 -5.21684 -0.0913684 0.999158 2.55 -0 20 -3.61937 0 0 0 -0 24 -2.05211 0 0 0 -0 20 -3.38211 0.517263 0.756737 0 -0 0 -5.1741 -0.084 0.313895 0 -0 20 -3.94947 0 0 0 -0 24 -2.47579 0 0 0 -0 20 -3.36516 0.537895 -0.128947 0 -0 0 -4.63474 -0.0221053 -0.478947 -3 -0 20 -3.44238 0 0 0 -0 24 -2.38811 0 0 0 -0 20 -3.16105 0.469368 -1.20179 0 -0 0 -4.14105 -0.0221053 -1.09053 -8.83 -0 20 -2.75653 0 0 0 -0 24 -1.74189 0 0 0 -0 20 3.20272 6.93134 -0.00882763 0.259477 1.79575 -3.07348 12.788 0.00761342 -0.0135174 -4.12123 6.28719 -80.2694 26.5036 -0.0249332 0.00918474 -73.4501 4.11998 -19.7236 25.9812 0.00366302 -0.0284392 8.65119 1.43963 -9.29572 2.48905 0.190105 3.12053 -21.86 -0 -30 3.68274 0 0 10 -0 0 2.55832 0 0 10 -0 0 3.22368 0.508421 1.97842 0 -0 0 5.21684 -0.0913684 0.999158 -2.55 -0 -20 3.61937 0 0 0 -0 -24 2.05211 0 0 0 -0 -20 3.38211 0.517263 0.756737 0 -0 0 5.1741 -0.084 0.313895 0 -0 -20 3.94947 0 0 0 -0 -24 2.47579 0 0 0 -0 -20 3.36516 0.537895 -0.128947 0 -0 0 4.63474 -0.0221053 -0.478947 3 -0 -20 3.44238 0 0 0 -0 -24 2.38811 0 0 0 -0 -20 3.16105 0.469368 -1.20179 0 -0 0 4.14105 -0.0221053 -1.09053 8.83 -0 -20 2.75653 0 0 0 -0 -24 1.74189 0 0 0 -0 -20 
14.9406 94.5633 -64.8365 174.645 6.28254 -0.0131812 -9.26736 -1.57505 0.0125865 14.6172 -5.32291 -5.47528 -0.00307998 -41.8741 0.0265726 -6.45925 4.15106 -1.60511 1.18774 -41.8192 -0.225988 0.00460788 -2.39699 -0.0069497 9.23009 -1.60806 0.0467543 15.6587 -4.16311 2.29616 0.00849911 -41.8746 0.0982926 -11.1864 -0.728266 -2.18682 0.0991622 -41.7824 0.142328 0.00535919 -2.39737 -0.00502825 0.030333 14.3077 0.0382103 -3.77656 -1.85808 0.145594 0.00397618 9.72034 0.0265048 -0.94368 -0.465995 0.0249208 0.00720482 10.1201 0.0144966 -1.57052 -0.776337 0.0457001 0.00812451 9.7188 0.0248627 0.20043 0.130187 0.046912 -0.0225945 10.3867 0.0196744 0.200438 0.130051 0.0469186 -0.0302794 9.47026 0.0083672 3.64881 2.28046 0.914229 -3.1916 6.91093 0.0171665 4.12448 9.84311 8.17117 -12.7613 -0.0101095 0.0214333 -32.2319 -3.03303 66.8972 -26.4656 -0.0881711 0.116301 43.7204 -22.1053 -11.2332 -25.9953 -0.100652 0.0657323 6.68286 -11.8906 -3.90415 -2.48905 0.190105 3.12053 21.86 -0 30 -3.68274 0 0 -10 -0 0 -2.55832 0 0 -10 -0 0 -3.22368 0.508421 1.97842 0 -0 0 -5.21684 -0.0913684 0.999158 2.55 -0 20 -3.61937 0 0 0 -0 24 -2.05211 0 0 0 -0 20 -3.38211 0.517263 0.756737 0 -0 0 -5.1741 -0.084 0.313895 0 -0 20 -3.94947 0 0 0 -0 24 -2.47579 0 0 0 -0 20 -3.36516 0.537895 -0.128947 0 -0 0 -4.63474 -0.0221053 -0.478947 -3 -0 20 -3.44238 0 0 0 -0 24 -2.38811 0 0 0 -0 20 -3.16105 0.469368 -1.20179 0 -0 0 -4.14105 -0.0221053 -1.09053 -8.83 -0 20 -2.75653 0 0 0 -0 24 -1.74189 0 0 0 -0 20 3.20196 6.93214 -0.00966767 0.215994 1.7913 -3.05554 12.7883 0.00795309 -0.0144486 -4.01052 6.41386 -80.3096 26.5073 -0.0312068 0.00589029 -73.5615 4.14636 -19.7019 25.9801 -0.00649707 -0.032749 8.60479 1.33046 -9.33864 2.48905 0.190105 3.12053 -21.86 -0 -30 3.68274 0 0 10 -0 0 2.55832 0 0 10 -0 0 3.22368 0.508421 1.97842 0 -0 0 5.21684 -0.0913684 0.999158 -2.55 -0 -20 3.61937 0 0 0 -0 -24 2.05211 0 0 0 -0 -20 3.38211 0.517263 0.756737 0 -0 0 5.1741 -0.084 0.313895 0 -0 -20 3.94947 0 0 0 -0 -24 2.47579 0 0 0 -0 -20 3.36516 0.537895 -0.128947 0 -0 0 4.63474 -0.0221053 -0.478947 3 -0 -20 3.44238 0 0 0 -0 -24 2.38811 0 0 0 -0 -20 3.16105 0.469368 -1.20179 0 -0 0 4.14105 -0.0221053 -1.09053 8.83 -0 -20 2.75653 0 0 0 -0 -24 1.74189 0 0 0 -0 -20 
14.9352 94.5586 -64.8517 174.625 6.24935 -0.0147396 -9.27174 -1.57535 0.00968121 14.6027 -5.31588 -5.44643 -0.0103325 -41.8744 0.0252894 -6.39869 4.19964 -1.60702 1.15592 -41.8112 -0.22315 0.00460595 -2.397 -0.00695215 9.23688 -1.60753 0.0439537 15.5602 -4.12411 2.2753 0.00916241 -41.8745 0.116952 -11.3984 -0.665881 -2.14475 0.0996962 -41.7763 0.175523 0.0053613 -2.39737 -0.00502715 0.0295879 14.3076 0.0355449 -3.79297 -1.83918 0.138263 0.00406068 9.71986 0.0261214 -0.947783 -0.461294 0.0231564 0.00716868 10.1201 0.0158174 -1.57729 -0.768582 0.0427379 0.00791335 9.71874 0.0248324 0.197182 0.129061 0.0474732 -0.0212918 10.3873 0.018604 0.197189 0.128925 0.0474796 -0.0274095 9.47028 0.00784001 3.59017 2.26057 0.92262 -3.19185 6.91113 0.0178081 4.08169 9.77461 8.18228 -12.7601 -0.00963053 0.0186827 -32.2944 -3.00149 66.8111 -26.465 -0.0827475 0.114409 43.5816 -21.969 -11.395 -25.9948 -0.0963302 0.0668142 6.7332 -11.8747 -3.92022 -2.48905 0.190105 3.12053 21.86 -0 30 -3.68274 0 0 -10 -0 0 -2.55832 0 0 -10 -0 0 -3.22368 0.508421 1.97842 0 -0 0 -5.21684 -0.0913684 0.999158 2.55 -0 20 -3.61937 0 0 0 -0 24 -2.05211 0 0 0 -0 20 -3.38211 0.517263 0.756737 0 -0 0 -5.1741 -0.084 0.313895 0 -0 20 -3.94947 0 0 0 -0 24 -2.47579 0 0 0 -0 20 -3.36516 0.537895 -0.128947 0 -0 0 -4.63474 -0.0221053 -0.478947 -3 -0 20 -3.44238 0 0 0 -0 24 -2.38811 0 0 0 -0 20 -3.16105 0.469368 -1.20179 0 -0 0 -4.14105 -0.0221053 -1.09053 -8.83 -0 20 -2.75653 0 0 0 -0 24 -1.74189 0 0 0 -0 20 3.20144 6.93094 -0.00886097 0.174579 1.7774 -3.04715 12.789 0.00659334 -0.014021 -3.91305 6.5378 -80.344 26.5055 -0.0293481 0.00707661 -73.6209 4.15869 -19.7251 25.9796 -0.00522322 -0.0299959 8.53004 1.24259 -9.34319 2.48905 0.190105 3.12053 -21.86 -0 -30 3.68274 0 0 10 -0 0 2.55832 0 0 10 -0 0 3.22368 0.508421 1.97842 0 -0 0 5.21684 -0.0913684 0.999158 -2.55 -0 -20 3.61937 0 0 0 -0 -24 2.05211 0 0 0 -0 -20 3.38211 0.517263 0.756737 0 -0 0 5.1741 -0.084 0.313895 0 -0 -20 3.94947 0 0 0 -0 -24 2.47579 0 0 0 -0 -20 3.36516 0.537895 -0.128947 0 -0 0 4.63474 -0.0221053 -0.478947 3 -0 -20 3.44238 0 0 0 -0 -24 2.38811 0 0 0 -0 -20 3.16105 0.469368 -1.20179 0 -0 0 4.14105 -0.0221053 -1.09053 8.83 -0 -20 2.75653 0 0 0 -0 -24 1.74189 0 0 0 -0 -20 
14.9322 94.5589 -64.863 174.615 6.22581 -0.0105527 -9.27522 -1.57467 0.00279097 14.5918 -5.30948 -5.43097 -0.00598349 -41.875 0.0254823 -6.38009 4.25048 -1.62948 1.14571 -41.8046 -0.204188 0.00460569 -2.397 -0.00694867 9.22856 -1.60815 0.0493456 15.4957 -4.08838 2.29276 -0.00353341 -41.8744 0.11926 -11.3668 -0.655664 -2.14446 0.100817 -41.7794 0.181275 0.00536026 -2.39737 -0.00503344 0.0302141 14.3076 0.0353412 -3.81087 -1.82508 0.126287 0.00412232 9.71959 0.0260783 -0.952249 -0.457815 0.0201983 0.00678001 10.1201 0.0166387 -1.58464 -0.762921 0.0378002 0.00704875 9.71886 0.0246607 0.193662 0.128431 0.0481302 -0.0212257 10.3879 0.0180118 0.193668 0.128296 0.0481367 -0.0262895 9.47026 0.00754481 3.52685 2.2496 0.932934 -3.19239 6.91199 0.0187352 4.03965 9.71689 8.19385 -12.7584 -0.00953126 0.0174933 -32.3666 -2.98255 66.7281 -26.4645 -0.0832757 0.112399 43.4452 -21.8473 -11.5461 -25.9935 -0.095903 0.0658024 6.76065 -11.8737 -3.94519 -2.48905 0.190105 3.12053 21.86 -0 30 -3.68274 0 0 -10 -0 0 -2.55832 0 0 -10 -0 0 -3.22368 0.508421 1.97842 0 -0 0 -5.21684 -0.0913684 0.999158 2.55 -0 20 -3.61937 0 0 0 -0 24 -2.05211 0 0 0 -0 20 -3.38211 0.517263 0.756737 0 -0 0 -5.1741 -0.084 0.313895 0 -0 20 -3.94947 0 0 0 -0 24 -2.47579 0 0 0 -0 20 -3.36516 0.537895 -0.128947 0 -0 0 -4.63474 -0.0221053 -0.478947 -3 -0 20 -3.44238 0 0 0 -0 24 -2.38811 0 0 0 -0 20 -3.16105 0.469368 -1.20179 0 -0 0 -4.14105 -0.0221053 -1.09053 -8.83 -0 20 -2.75653 0 0 0 -0 24 -1.74189 0 0 0 -0 20 3.20127 6.93128 -0.00978631 0.125118 1.76829 -3.03545 12.7901 0.00664207 -0.0169478 -3.81532 6.64741 -80.378 26.5042 -0.026561 0.005957 -73.6738 4.16663 -19.7534 25.9794 -0.00260005 -0.0284489 8.47072 1.1497 -9.33986 2.48905 0.190105 3.12053 -21.86 -0 -30 3.68274 0 0 10 -0 0 2.55832 0 0 10 -0 0 3.22368 0.508421 1.97842 0 -0 0 5.21684 -0.0913684 0.999158 -2.55 -0 -20 3.61937 0 0 0 -0 -24 2.05211 0 0 0 -0 -20 3.38211 0.517263 0.756737 0 -0 0 5.1741 -0.084 0.313895 0 -0 -20 3.94947 0 0 0 -0 -24 2.47579 0 0 0 -0 -20 3.36516 0.537895 -0.128947 0 -0 0 4.63474 -0.0221053 -0.478947 3 -0 -20 3.44238 0 0 0 -0 -24 2.38811 0 0 0 -0 -20 3.16105 0.469368 -1.20179 0 -0 0 4.14105 -0.0221053 -1.09053 8.83 -0 -20 2.75653 0 0 0 -0 -24 1.74189 0 0 0 -0 -20 
14.9288 94.5596 -64.8685 174.608 6.23054 -0.00596501 -9.27977 -1.57417 0.000240954 14.5928 -5.33001 -5.42443 -0.0119267 -41.8751 0.0224921 -6.35587 4.29138 -1.62599 1.12161 -41.8013 -0.19079 0.0046098 -2.397 -0.00694963 9.2317 -1.60784 0.0482224 15.429 -4.06877 2.26496 0.00207109 -41.8742 0.12123 -11.3367 -0.651812 -2.12154 0.114709 -41.7813 0.202975 0.00536453 -2.39738 -0.00503212 0.0305291 14.3075 0.0307836 -3.83308 -1.82434 0.116967 0.00417107 9.71944 0.024731 -0.957782 -0.457686 0.0178084 0.00659092 10.1201 0.0160708 -1.59376 -0.762821 0.0338437 0.00665664 9.71884 0.0236306 0.190797 0.128254 0.0485648 -0.0209385 10.3884 0.0172877 0.190802 0.12812 0.0485712 -0.0259884 9.47029 0.00753258 3.47539 2.24682 0.93971 -3.19318 6.91255 0.0188057 4.02672 9.67215 8.19379 -12.7586 -0.00945523 0.0194713 -32.447 -2.96403 66.6584 -26.467 -0.074608 0.105282 43.3358 -21.7597 -11.5823 -25.992 -0.0811595 0.0619723 6.75315 -11.8596 -4.06739 -2.48905 0.190105 3.12053 21.86 -0 30 -3.68274 0 0 -10 -0 0 -2.55832 0 0 -10 -0 0 -3.22368 0.508421 1.97842 0 -0 0 -5.21684 -0.0913684 0.999158 2.55 -0 20 -3.61937 0 0 0 -0 24 -2.05211 0 0 0 -0 20 -3.38211 0.517263 0.756737 0 -0 0 -5.1741 -0.084 0.313895 0 -0 20 -3.94947 0 0 0 -0 24 -2.47579 0 0 0 -0 20 -3.36516 0.537895 -0.128947 0 -0 0 -4.63474 -0.0221053 -0.478947 -3 -0 20 -3.44238 0 0 0 -0 24 -2.38811 0 0 0 -0 20 -3.16105 0.469368 -1.20179 0 -0 0 -4.14105 -0.0221053 -1.09053 -8.83 -0 20 -2.75653 0 0 0 -0 24 -1.74189 0 0 0 -0 20 3.20108 6.93157 -0.00914256 0.0927738 1.75954 -3.02849 12.7912 0.00597343 -0.015326 -3.73656 6.75326 -80.414 26.451 0.0184499 0.040789 -73.3217 3.95346 -19.9783 25.9793 0.0482086 0.0289889 8.12935 1.34553 -9.04033 2.48905 0.190105 3.12053 -21.86 -0 -30 3.68274 0 0 10 -0 0 2.55832 0 0 10 -0 0 3.22368 0.508421 1.97842 0 -0 0 5.21684 -0.0913684 0.999158 -2.55 -0 -20 3.61937 0 0 0 -0 -24 2.05211 0 0 0 -0 -20 3.38211 0.517263 0.756737 0 -0 0 5.1741 -0.084 0.313895 0 -0 -20 3.94947 0 0 0 -0 -24 2.47579 0 0 0 -0 -20 3.36516 0.537895 -0.128947 0 -0 0 4.63474 -0.0221053 -0.478947 3 -0 -20 3.44238 0 0 0 -0 -24 2.38811 0 0 0 -0 -20 3.16105 0.469368 -1.20179 0 -0 0 4.14105 -0.0221053 -1.09053 8.83 -0 -20 2.75653 0 0 0 -0 -24 1.74189 0 0 0 -0 -20 
